<?xml version="1.0" standalone="no"?><!-- Generator: Gravit.io --><svg xmlns="http://www.w3.org/2000/svg" xmlns:xlink="http://www.w3.org/1999/xlink" style="isolation:isolate" viewBox="0 0 2500 2500" width="2500" height="2500"><defs><clipPath id="_clipPath_gZ9ZDI7pq9mZpkMqrKumAba3GdUmXdCL"><rect width="2500" height="2500"/></clipPath></defs><g clip-path="url(#_clipPath_gZ9ZDI7pq9mZpkMqrKumAba3GdUmXdCL)"><path d=" M 0 2177.646 C 0 2355.693 144.326 2500 322.354 2500 L 2177.637 2500 C 2355.693 2500 2500 2355.674 2500 2177.646 L 2500 322.363 C 2500 144.307 2355.674 0 2177.646 0 L 322.363 0 C 144.307 0 0 144.326 0 322.354 L 0 2177.637 L 0 2177.646 Z " fill="rgb(86,61,124)"/><path d=" M 703.857 493.164 L 703.857 2006.836 L 1437.373 2006.836 C 1505.215 2006.836 1571.289 1998.359 1635.596 1981.397 C 1699.902 1964.434 1757.139 1938.291 1807.314 1902.959 C 1857.48 1867.627 1897.412 1822.041 1927.09 1766.221 C 1956.777 1710.391 1971.611 1644.316 1971.611 1567.998 C 1971.611 1473.301 1948.643 1392.393 1902.715 1325.264 C 1856.777 1258.125 1787.168 1211.133 1693.887 1184.277 C 1761.729 1151.777 1812.969 1110.078 1847.598 1059.199 C 1882.217 1008.32 1899.531 944.727 1899.531 868.398 C 1899.531 797.734 1887.871 738.379 1864.551 690.322 C 1841.231 642.275 1808.369 603.76 1765.967 574.785 C 1723.574 545.811 1672.695 524.961 1613.33 512.246 C 1553.975 499.521 1488.252 493.164 1416.172 493.164 L 703.857 493.164 Z " fill="rgb(255,255,255)"/><path d=" M 1036.699 1105.84 L 1036.699 751.807 L 1348.33 751.807 C 1378.018 751.807 1406.631 754.277 1434.189 759.229 C 1461.748 764.17 1486.133 772.998 1507.334 785.723 C 1528.525 798.447 1545.488 816.113 1558.213 838.721 C 1570.928 861.338 1577.295 890.312 1577.295 925.635 C 1577.295 989.238 1558.213 1035.176 1520.049 1063.438 C 1481.895 1091.709 1433.135 1105.84 1373.769 1105.84 L 1036.699 1105.84 L 1036.699 1105.84 Z " fill="rgb(86,61,124)"/><path d=" M 1036.699 1748.193 L 1036.699 1332.676 L 1399.209 1332.676 C 1471.289 1332.676 1529.238 1349.277 1573.057 1382.5 C 1616.865 1415.713 1638.779 1471.182 1638.779 1548.916 C 1638.779 1588.496 1632.061 1620.996 1618.633 1646.436 C 1605.205 1671.875 1587.187 1692.021 1564.57 1706.855 C 1541.963 1721.699 1515.81 1732.295 1486.133 1738.662 C 1456.445 1745.01 1425.361 1748.193 1392.852 1748.193 L 1036.699 1748.193 L 1036.699 1748.193 Z " fill="rgb(86,61,124)"/></g></svg>