<?xml version="1.0" standalone="no"?><!-- Generator: Gravit.io --><svg xmlns="http://www.w3.org/2000/svg" xmlns:xlink="http://www.w3.org/1999/xlink" style="isolation:isolate" viewBox="0 0 256 256" width="256" height="256"><defs><clipPath id="_clipPath_I6qoMSgtGr6DJzr9gfPrZYlYS3utMAc4"><rect width="256" height="256"/></clipPath></defs><g clip-path="url(#_clipPath_I6qoMSgtGr6DJzr9gfPrZYlYS3utMAc4)"><path d=" M 0 0 L 256 0 L 256 256 L 0 256 L 0 0 L 0 0 Z " fill="rgb(247,223,30)"/><path d=" M 67.312 213.932 L 86.903 202.076 C 90.682 208.777 94.12 214.447 102.367 214.447 C 110.272 214.447 115.256 211.355 115.256 199.327 L 115.256 117.529 L 139.314 117.529 L 139.314 199.667 C 139.314 224.584 124.708 235.926 103.398 235.926 C 84.153 235.926 72.982 225.959 67.311 213.93 L 67.312 213.932 Z " fill="rgb(0,0,0)"/><path d=" M 152.381 211.354 L 171.969 200.013 C 177.126 208.434 183.828 214.62 195.684 214.62 C 205.653 214.62 212.009 209.636 212.009 202.762 C 212.009 194.514 205.479 191.592 194.481 186.782 L 188.468 184.203 C 171.111 176.815 159.597 167.535 159.597 147.945 C 159.597 129.901 173.345 116.153 194.826 116.153 C 210.12 116.153 221.118 121.481 229.022 135.4 L 210.291 147.429 C 206.166 140.04 201.7 137.119 194.826 137.119 C 187.78 137.119 183.312 141.587 183.312 147.429 C 183.312 154.646 187.78 157.568 198.09 162.037 L 204.104 164.614 C 224.553 173.379 236.067 182.313 236.067 202.418 C 236.067 224.072 219.055 235.928 196.2 235.928 C 173.861 235.928 159.426 225.274 152.381 211.354 L 152.381 211.354 Z " fill="rgb(0,0,0)"/></g></svg>